<svg xmlns="http://www.w3.org/2000/svg" viewBox="0 0 512 512" role="img" aria-label="MindMap idea bulb hub icon candidate">
  <title>MindMap idea bulb hub icon candidate</title>
  <defs>
    <linearGradient id="paper" x1="54" y1="40" x2="460" y2="468" gradientUnits="userSpaceOnUse">
      <stop offset="0" stop-color="#fffdf7"/>
      <stop offset="1" stop-color="#eef8ff"/>
    </linearGradient>
    <linearGradient id="bulb" x1="210" y1="136" x2="304" y2="258" gradientUnits="userSpaceOnUse">
      <stop offset="0" stop-color="#fff4a8"/>
      <stop offset="1" stop-color="#f4b64d"/>
    </linearGradient>
    <marker id="arrow" viewBox="0 0 10 10" refX="8" refY="5" markerWidth="8" markerHeight="8" orient="auto-start-reverse">
      <path d="M1 1l8 4-8 4z" fill="#273244"/>
    </marker>
    <filter id="shadow" x="-15%" y="-15%" width="130%" height="135%">
      <feDropShadow dx="0" dy="12" stdDeviation="18" flood-color="#64748b" flood-opacity=".22"/>
    </filter>
  </defs>
  <rect x="14" y="14" width="484" height="484" rx="86" fill="url(#paper)" stroke="#d8e2ef" stroke-width="6"/>
  <g filter="url(#shadow)">
    <rect x="48" y="72" width="122" height="92" rx="28" fill="#b9e9ff" stroke="#273244" stroke-width="7"/>
    <rect x="342" y="72" width="122" height="92" rx="28" fill="#ffe39d" stroke="#273244" stroke-width="7"/>
    <rect x="42" y="332" width="134" height="96" rx="30" fill="#c9efba" stroke="#273244" stroke-width="7"/>
    <rect x="336" y="332" width="134" height="96" rx="30" fill="#f9c6d6" stroke="#273244" stroke-width="7"/>
    <rect x="188" y="348" width="136" height="90" rx="30" fill="#d6cdf8" stroke="#273244" stroke-width="7"/>
  </g>
  <path d="M214 213C172 188 142 160 126 125" fill="none" stroke="#273244" stroke-width="10" stroke-linecap="round" marker-end="url(#arrow)"/>
  <path d="M298 213c42-25 72-53 88-88" fill="none" stroke="#273244" stroke-width="10" stroke-linecap="round" marker-end="url(#arrow)"/>
  <path d="M214 281c-42 28-73 63-92 104" fill="none" stroke="#273244" stroke-width="10" stroke-linecap="round" marker-end="url(#arrow)"/>
  <path d="M298 281c42 28 73 63 92 104" fill="none" stroke="#273244" stroke-width="10" stroke-linecap="round" marker-end="url(#arrow)"/>
  <path d="M256 310v48" fill="none" stroke="#273244" stroke-width="10" stroke-linecap="round" marker-end="url(#arrow)"/>
  <g>
    <path d="M208 220c0-31 22-58 48-58s48 27 48 58c0 20-10 36-24 48-8 7-10 14-10 24h-28c0-10-2-17-10-24-14-12-24-28-24-48z" fill="url(#bulb)" stroke="#273244" stroke-width="10" stroke-linejoin="round"/>
    <path d="M238 298h36M240 320h32M246 342h20" stroke="#273244" stroke-width="10" stroke-linecap="round"/>
    <path d="M248 250c-2-19 18-19 16 0" fill="none" stroke="#273244" stroke-width="7" stroke-linecap="round"/>
    <path d="M256 124v22M197 145l15 18M315 145l-15 18M178 204h24M310 204h24" stroke="#f2b84d" stroke-width="9" stroke-linecap="round"/>
  </g>
</svg>
