<svg xmlns="http://www.w3.org/2000/svg" viewBox="0 0 512 512" role="img" aria-label="MindMap purple M branch app logo candidate">
  <title>MindMap purple M branch app logo candidate</title>
  <defs>
    <linearGradient id="tile" x1="64" y1="46" x2="452" y2="476" gradientUnits="userSpaceOnUse">
      <stop offset="0" stop-color="#9368ff"/>
      <stop offset=".45" stop-color="#6333db"/>
      <stop offset="1" stop-color="#38117f"/>
    </linearGradient>
    <linearGradient id="gloss" x1="92" y1="58" x2="290" y2="278" gradientUnits="userSpaceOnUse">
      <stop offset="0" stop-color="#ffffff" stop-opacity=".34"/>
      <stop offset="1" stop-color="#ffffff" stop-opacity="0"/>
    </linearGradient>
    <filter id="shadow" x="-20%" y="-20%" width="140%" height="145%">
      <feDropShadow dx="0" dy="20" stdDeviation="22" flood-color="#2e1065" flood-opacity=".36"/>
    </filter>
    <filter id="markShadow" x="-15%" y="-15%" width="130%" height="135%">
      <feDropShadow dx="0" dy="10" stdDeviation="8" flood-color="#2e1065" flood-opacity=".3"/>
    </filter>
  </defs>
  <rect x="34" y="34" width="444" height="444" rx="104" fill="url(#tile)" filter="url(#shadow)"/>
  <path d="M68 125c0-38 31-69 69-69h142C202 92 145 156 111 252c-14 38-24 81-31 129-8-15-12-32-12-50z" fill="url(#gloss)"/>
  <g filter="url(#markShadow)">
    <path d="M123 336l38-164h62l33 82 33-82h62l38 164h-56l-23-101-36 101h-37l-36-101-23 101z" fill="#ffffff"/>
    <path d="M178 336l58-126h40l58 126h-51l-27-67-27 67z" fill="#f1efff"/>
    <circle cx="190" cy="151" r="18" fill="#ffffff"/>
    <circle cx="256" cy="257" r="18" fill="#ffffff"/>
    <circle cx="322" cy="151" r="18" fill="#ffffff"/>
    <path d="M190 151c33 25 49 58 66 106 17-48 33-81 66-106" fill="none" stroke="#ffffff" stroke-width="17" stroke-linecap="round" stroke-linejoin="round"/>
  </g>
  <path d="M160 372h194" stroke="#cbbcff" stroke-width="13" stroke-linecap="round" opacity=".66"/>
</svg>
