<svg xmlns="http://www.w3.org/2000/svg" viewBox="0 0 512 512" role="img" aria-label="MindMap brain bulb node icon candidate">
  <title>MindMap brain bulb node icon candidate</title>
  <defs>
    <linearGradient id="tile" x1="54" y1="34" x2="460" y2="478" gradientUnits="userSpaceOnUse">
      <stop offset="0" stop-color="#dff6ff"/>
      <stop offset=".58" stop-color="#c6eeff"/>
      <stop offset="1" stop-color="#9dd9f5"/>
    </linearGradient>
    <linearGradient id="gloss" x1="78" y1="46" x2="314" y2="300" gradientUnits="userSpaceOnUse">
      <stop offset="0" stop-color="#ffffff" stop-opacity=".42"/>
      <stop offset="1" stop-color="#ffffff" stop-opacity="0"/>
    </linearGradient>
    <linearGradient id="orange" x1="156" y1="84" x2="354" y2="424" gradientUnits="userSpaceOnUse">
      <stop offset="0" stop-color="#f4c93f"/>
      <stop offset=".52" stop-color="#eba51e"/>
      <stop offset="1" stop-color="#d97706"/>
    </linearGradient>
    <filter id="tileShadow" x="-18%" y="-18%" width="136%" height="142%">
      <feDropShadow dx="0" dy="20" stdDeviation="24" flood-color="#2563eb" flood-opacity=".2"/>
    </filter>
    <filter id="symbolShadow" x="-18%" y="-18%" width="136%" height="140%">
      <feDropShadow dx="0" dy="10" stdDeviation="9" flood-color="#2563eb" flood-opacity=".18"/>
    </filter>
  </defs>
  <rect x="34" y="34" width="444" height="444" rx="104" fill="url(#tile)" filter="url(#tileShadow)"/>
  <path d="M70 124c0-37 30-67 67-67h139C201 94 145 158 111 252c-14 39-24 82-31 129-7-14-10-30-10-47z" fill="url(#gloss)"/>
  <g fill="none" stroke-linecap="round" stroke-linejoin="round">
    <path d="M176 248C142 263 116 287 98 320" stroke="#5f8fb1" stroke-width="8" opacity=".64"/>
    <path d="M336 248c34 15 60 39 78 72" stroke="#5f8fb1" stroke-width="8" opacity=".64"/>
    <path d="M216 348c-30 16-54 40-72 70" stroke="#5f8fb1" stroke-width="8" opacity=".58"/>
    <path d="M296 348c30 16 54 40 72 70" stroke="#5f8fb1" stroke-width="8" opacity=".58"/>
  </g>
  <g filter="url(#symbolShadow)">
    <path d="M181 218c0-50 33-92 75-92s75 42 75 92c0 35-17 62-43 81-13 9-19 20-19 36h-26c0-16-6-27-19-36-26-19-43-46-43-81z" fill="#ffe9a3" opacity=".62"/>
    <path d="M181 218c0-50 33-92 75-92s75 42 75 92c0 35-17 62-43 81-13 9-19 20-19 36h-26c0-16-6-27-19-36-26-19-43-46-43-81z" fill="none" stroke="url(#orange)" stroke-width="16"/>
    <path d="M214 218c-12-22 5-46 30-42 10-22 42-21 52 1 25-4 42 22 31 44 14 16 4 42-20 45h-88c-25-3-35-30-19-48z" fill="none" stroke="url(#orange)" stroke-width="12"/>
    <path d="M220 222c15-12 31-8 43 8M267 198c19 3 30 16 32 35M236 254c20 7 42 2 57-11" stroke="url(#orange)" stroke-width="10"/>
    <path d="M235 222c-8 18 8 31 24 22M279 218c10 17-4 33-21 25M256 262v60" stroke="url(#orange)" stroke-width="10"/>
    <path d="M226 342h60M219 367h74M231 391h50" stroke="url(#orange)" stroke-width="17"/>
    <path d="M228 404h56l-13 30h-30z" fill="url(#orange)" stroke="none"/>
  </g>
  <g stroke="url(#orange)" stroke-width="11" stroke-linecap="round" opacity=".92">
    <path d="M256 80v27"/>
    <path d="M199 96l15 24"/>
    <path d="M313 96l-15 24"/>
    <path d="M151 145l23 17"/>
    <path d="M361 145l-23 17"/>
    <path d="M128 218h29"/>
    <path d="M355 218h29"/>
  </g>
  <g filter="url(#symbolShadow)" stroke="url(#orange)" stroke-width="9">
    <circle cx="98" cy="320" r="23" fill="#f7fbff"/>
    <circle cx="414" cy="320" r="23" fill="#f7fbff"/>
    <circle cx="144" cy="418" r="21" fill="#f7fbff"/>
    <circle cx="368" cy="418" r="21" fill="#f7fbff"/>
  </g>
  <g stroke="#ffffff" stroke-width="7" stroke-linecap="round" opacity=".64">
    <path d="M116 112c17-20 39-34 65-42"/>
    <path d="M395 111c-18-19-40-33-66-41"/>
  </g>
</svg>
