<svg xmlns="http://www.w3.org/2000/svg" viewBox="0 0 512 512" role="img" aria-label="MindMap brain bulb app logo candidate">
  <title>MindMap brain bulb app logo candidate</title>
  <defs>
    <linearGradient id="tile" x1="54" y1="34" x2="460" y2="478" gradientUnits="userSpaceOnUse">
      <stop offset="0" stop-color="#d9f6ff"/>
      <stop offset=".52" stop-color="#8fd7f5"/>
      <stop offset="1" stop-color="#4b9de8"/>
    </linearGradient>
    <linearGradient id="gloss" x1="78" y1="46" x2="314" y2="300" gradientUnits="userSpaceOnUse">
      <stop offset="0" stop-color="#ffffff" stop-opacity=".48"/>
      <stop offset="1" stop-color="#ffffff" stop-opacity="0"/>
    </linearGradient>
    <linearGradient id="bulbFill" x1="190" y1="126" x2="318" y2="338" gradientUnits="userSpaceOnUse">
      <stop offset="0" stop-color="#fff6b8"/>
      <stop offset=".58" stop-color="#ffd464"/>
      <stop offset="1" stop-color="#f2a32a"/>
    </linearGradient>
    <linearGradient id="orange" x1="156" y1="96" x2="362" y2="406" gradientUnits="userSpaceOnUse">
      <stop offset="0" stop-color="#f7c43b"/>
      <stop offset=".5" stop-color="#eba41d"/>
      <stop offset="1" stop-color="#da7c09"/>
    </linearGradient>
    <filter id="tileShadow" x="-18%" y="-18%" width="136%" height="142%">
      <feDropShadow dx="0" dy="20" stdDeviation="24" flood-color="#2563eb" flood-opacity=".24"/>
    </filter>
    <filter id="symbolShadow" x="-20%" y="-20%" width="140%" height="145%">
      <feDropShadow dx="0" dy="12" stdDeviation="10" flood-color="#1e40af" flood-opacity=".2"/>
    </filter>
    <filter id="warmGlow" x="-30%" y="-30%" width="160%" height="160%">
      <feGaussianBlur stdDeviation="12" result="blur"/>
      <feMerge>
        <feMergeNode in="blur"/>
        <feMergeNode in="SourceGraphic"/>
      </feMerge>
    </filter>
  </defs>
  <rect x="34" y="34" width="444" height="444" rx="104" fill="url(#tile)" filter="url(#tileShadow)"/>
  <path d="M70 124c0-37 30-67 67-67h139C201 94 145 158 111 252c-14 39-24 82-31 129-7-14-10-30-10-47z" fill="url(#gloss)"/>
  <circle cx="256" cy="224" r="116" fill="#fff2a4" opacity=".42" filter="url(#warmGlow)"/>
  <g filter="url(#symbolShadow)">
    <path d="M181 216c0-50 33-92 75-92s75 42 75 92c0 36-17 63-44 82-13 9-18 20-18 37h-26c0-17-5-28-18-37-27-19-44-46-44-82z" fill="url(#bulbFill)" stroke="url(#orange)" stroke-width="17" stroke-linejoin="round"/>
    <path d="M217 214c-11-22 4-46 28-42 10-23 43-22 52 1 25-4 42 22 31 44 14 15 6 42-17 45h-92c-24-3-35-30-19-48z" fill="#fff8d2" stroke="url(#orange)" stroke-width="11" stroke-linejoin="round"/>
    <path d="M221 219c15-11 31-8 43 8M267 195c18 3 29 15 31 34M235 251c20 7 42 3 57-10" fill="none" stroke="url(#orange)" stroke-width="10" stroke-linecap="round"/>
    <path d="M256 172v94M220 232h72M238 202l18 30 21-31" fill="none" stroke="url(#orange)" stroke-width="10" stroke-linecap="round" stroke-linejoin="round" opacity=".92"/>
    <path d="M225 342h62M218 367h76M229 392h54" stroke="url(#orange)" stroke-width="18" stroke-linecap="round"/>
    <path d="M226 403h60l-14 32h-32z" fill="url(#orange)"/>
  </g>
  <g stroke="url(#orange)" stroke-width="12" stroke-linecap="round" opacity=".9">
    <path d="M256 78v28"/>
    <path d="M196 94l16 25"/>
    <path d="M316 94l-16 25"/>
    <path d="M146 142l25 18"/>
    <path d="M366 142l-25 18"/>
    <path d="M126 214h31"/>
    <path d="M355 214h31"/>
  </g>
  <g stroke="#ffffff" stroke-width="7" stroke-linecap="round" opacity=".64">
    <path d="M116 112c17-20 39-34 65-42"/>
    <path d="M395 111c-18-19-40-33-66-41"/>
    <path d="M104 315c18 31 45 54 82 68"/>
    <path d="M408 315c-18 31-45 54-82 68"/>
  </g>
</svg>
